<svg width="32" height="32" viewBox="0 0 32 32" fill="none" xmlns="http://www.w3.org/2000/svg">
<g clip-path="url(#clip0_1579_14939)">
<rect width="32" height="32" fill="#202023"/>
<path d="M0 0H32L16 16L0 32V0Z" fill="#FFCD19"/>
<path d="M10.434 6.32092V16H7.56604V6.32092H4V4H14V6.32092H10.434Z" fill="#202023"/>
<path d="M18.2368 16.16H21.2207V20.9951H21.3215C21.4693 20.5271 21.8054 20.1441 22.3296 19.8462C22.8672 19.5483 23.4788 19.3994 24.1642 19.3994C25.5083 19.3994 26.5231 19.7717 27.2086 20.5164C27.8941 21.2611 28.2368 22.3462 28.2368 23.7717C28.2368 25.1973 27.8941 26.2877 27.2086 27.043C26.5231 27.7877 25.5083 28.16 24.1642 28.16C23.8148 28.16 23.4855 28.1175 23.1763 28.0324C22.8672 27.9579 22.5849 27.8515 22.3296 27.7132C22.0876 27.5643 21.8793 27.3941 21.7046 27.2026C21.5298 27.0005 21.4021 26.7877 21.3215 26.5643H21.2207V27.9685H18.2368V16.16ZM23.1763 26.2451C23.7408 26.2451 24.2046 26.0909 24.5675 25.7824C24.9438 25.4632 25.132 25.0377 25.132 24.5058V23.0537C25.132 22.5217 24.9438 22.1015 24.5675 21.793C24.2046 21.4739 23.7408 21.3143 23.1763 21.3143C22.6118 21.3143 22.1414 21.426 21.765 21.6494C21.4021 21.8622 21.2207 22.16 21.2207 22.543V25.0164C21.2207 25.3994 21.4021 25.7026 21.765 25.926C22.1414 26.1388 22.6118 26.2451 23.1763 26.2451Z" fill="white"/>
</g>
<defs>
<clipPath id="clip0_1579_14939">
<rect width="32" height="32" fill="white"/>
</clipPath>
</defs>
</svg>
