<svg width="196" height="56" viewBox="0 0 196 56" fill="none" xmlns="http://www.w3.org/2000/svg">
<path d="M0.733752 9.42105V6.89473H17.818V9.42105H10.6495V29H7.90217V9.42105H0.733752ZM20.5986 29V6.89473H34.6828V9.42105H23.346V16.4947H32.7881V19.0211H23.346V26.4737H35.0934V29H20.5986ZM40.861 29H38.1768V6.89473H40.7031L52.5768 23.9474V6.89473H55.261V29H52.7347L40.861 11.9474V29ZM66.6217 29H59.5481V6.89473H66.6217C73.5375 6.89473 77.7375 11.3158 77.7375 17.9474C77.7375 24.5474 73.5375 29 66.6217 29ZM62.2954 9.42105V26.4737H66.6217C71.9902 26.4737 74.927 23.0947 74.927 17.9474C74.927 12.7684 71.9902 9.42105 66.6217 9.42105H62.2954ZM81.1969 29V6.89473H95.2811V9.42105H83.9443V16.4947H93.3864V19.0211H83.9443V26.4737H95.6917V29H81.1969ZM98.775 29V6.89473H107.238C111.659 6.89473 114.596 9.54737 114.596 13.6842C114.596 16.7789 112.733 19.1789 109.891 19.9684L114.849 29H111.754L107.08 20.5053H101.522V29H98.775ZM107.049 9.42105H101.522V17.9789H107.017C109.922 17.9789 111.786 16.2737 111.786 13.6842C111.786 11.0947 109.922 9.42105 107.049 9.42105Z" fill="#202023"/>
<path d="M134.082 12.7053C138.534 12.7053 141.819 15.7053 141.819 20.9474C141.819 25.8737 138.534 29.1895 134.082 29.1895C131.366 29.1895 129.534 28.0842 128.555 26.5368L128.208 29H125.966V6.89473H128.555V15.4842C129.629 14 131.366 12.7053 134.082 12.7053ZM133.829 26.8842C137.019 26.8842 139.166 24.4526 139.166 20.9474C139.166 17.4421 137.019 15.0105 133.829 15.0105C130.671 15.0105 128.524 17.4421 128.524 20.8842C128.524 24.4211 130.671 26.8842 133.829 26.8842ZM152.199 29.1895C147.493 29.1895 144.209 25.8421 144.209 20.9474C144.209 16.0526 147.493 12.7053 152.199 12.7053C156.904 12.7053 160.188 16.0526 160.188 20.9474C160.188 25.8421 156.904 29.1895 152.199 29.1895ZM152.199 26.8842C155.388 26.8842 157.536 24.3895 157.536 20.9474C157.536 17.5053 155.388 15.0105 152.199 15.0105C149.009 15.0105 146.862 17.5053 146.862 20.9474C146.862 24.3895 149.009 26.8842 152.199 26.8842ZM170.579 29.1895C165.873 29.1895 162.589 25.8421 162.589 20.9474C162.589 16.0526 165.873 12.7053 170.579 12.7053C175.284 12.7053 178.568 16.0526 178.568 20.9474C178.568 25.8421 175.284 29.1895 170.579 29.1895ZM170.579 26.8842C173.768 26.8842 175.916 24.3895 175.916 20.9474C175.916 17.5053 173.768 15.0105 170.579 15.0105C167.389 15.0105 165.242 17.5053 165.242 20.9474C165.242 24.3895 167.389 26.8842 170.579 26.8842ZM181.538 29V6.89473H184.127V21.4526L192.211 12.8947H195.401L189.116 19.5579L195.843 29H192.716L187.38 21.4211L184.127 24.7684V29H181.538Z" fill="#FFCD19"/>
<path d="M7.88184 52H6.56328V41.1413H7.80428L13.637 49.518V41.1413H14.9555V52H13.7145L7.88184 43.6233V52ZM20.5207 52.0931C18.1473 52.0931 16.5961 50.4643 16.5961 48.0443C16.5961 45.6399 18.1163 43.9956 20.3501 43.9956C22.5839 43.9956 24.0421 45.4072 24.1041 47.7496C24.1041 47.9202 24.0886 48.1064 24.0731 48.2925H17.9302V48.4011C17.9767 49.9058 18.923 50.9607 20.4277 50.9607C21.5446 50.9607 22.4133 50.3712 22.677 49.3474H23.9645C23.6543 50.9296 22.3512 52.0931 20.5207 52.0931ZM18.0077 47.2377H22.739C22.6149 45.8726 21.6842 45.1125 20.3656 45.1125C19.2022 45.1125 18.1318 45.9501 18.0077 47.2377ZM24.3847 52L27.3941 47.9357L24.5863 44.0886H26.1066L28.2007 47.0205L30.326 44.0886H31.7686L28.9453 47.9357L31.9703 52H30.4501L28.1387 48.8199L25.8273 52H24.3847ZM33.5378 49.9368V45.2521H32.1106V44.0886H33.5378V41.8704H34.8098V44.0886H36.8574V45.2521H34.8098V49.9213C34.8098 50.5884 35.0425 50.8366 35.725 50.8366H36.9815V52H35.6009C34.0807 52 33.5378 51.333 33.5378 49.9368ZM48.3797 45.4537L48.5503 44.0886H49.6517V51.6122C49.6517 53.8925 48.4417 55.1956 45.727 55.1956C43.7104 55.1956 42.2988 54.2493 42.0971 52.5119H43.4002C43.6173 53.5047 44.5016 54.0632 45.8201 54.0632C47.48 54.0632 48.3797 53.2875 48.3797 51.5657V50.6349C47.8523 51.5346 46.9991 52.0931 45.665 52.0931C43.4777 52.0931 41.8644 50.6194 41.8644 48.0443C41.8644 45.6244 43.4777 43.9956 45.665 43.9956C46.9991 43.9956 47.8833 44.5695 48.3797 45.4537ZM45.7891 50.9607C47.3403 50.9607 48.3952 49.7662 48.3952 48.0753C48.3952 46.3379 47.3403 45.128 45.7891 45.128C44.2223 45.128 43.1675 46.3224 43.1675 48.0443C43.1675 49.7662 44.2223 50.9607 45.7891 50.9607ZM55.0299 52.0931C52.6565 52.0931 51.1053 50.4643 51.1053 48.0443C51.1053 45.6399 52.6255 43.9956 54.8593 43.9956C57.0931 43.9956 58.5513 45.4072 58.6133 47.7496C58.6133 47.9202 58.5978 48.1064 58.5823 48.2925H52.4393V48.4011C52.4859 49.9058 53.4321 50.9607 54.9368 50.9607C56.0537 50.9607 56.9224 50.3712 57.1862 49.3474H58.4737C58.1634 50.9296 56.8604 52.0931 55.0299 52.0931ZM52.5169 47.2377H57.2482C57.1241 45.8726 56.1934 45.1125 54.8748 45.1125C53.7114 45.1125 52.641 45.9501 52.5169 47.2377ZM63.9429 43.9956C65.7269 43.9956 67.1385 44.9729 67.1385 47.5945V52H65.8665V47.672C65.8665 46.0277 65.1064 45.159 63.7257 45.159C62.2365 45.159 61.3368 46.2604 61.3368 48.0443V52H60.0648V44.0886H61.1662L61.3368 45.159C61.8022 44.554 62.6088 43.9956 63.9429 43.9956ZM72.3148 52.0931C69.9414 52.0931 68.3902 50.4643 68.3902 48.0443C68.3902 45.6399 69.9104 43.9956 72.1442 43.9956C74.378 43.9956 75.8361 45.4072 75.8982 47.7496C75.8982 47.9202 75.8827 48.1064 75.8672 48.2925H69.7242V48.4011C69.7708 49.9058 70.717 50.9607 72.2217 50.9607C73.3386 50.9607 74.2073 50.3712 74.471 49.3474H75.7586C75.4483 50.9296 74.1453 52.0931 72.3148 52.0931ZM69.8018 47.2377H74.5331C74.409 45.8726 73.4782 45.1125 72.1597 45.1125C70.9962 45.1125 69.9259 45.9501 69.8018 47.2377ZM81.0106 44.0886H81.3674V45.3296H80.7314C79.0716 45.3296 78.6217 46.7102 78.6217 47.9668V52H77.3497V44.0886H78.4511L78.6217 45.2831C78.994 44.6781 79.599 44.0886 81.0106 44.0886ZM89.1935 50.8366H89.5968V52H88.8987C87.8439 52 87.4871 51.5501 87.4716 50.7745C86.9752 51.4881 86.184 52.0931 84.8189 52.0931C83.0816 52.0931 81.9026 51.2244 81.9026 49.7817C81.9026 48.1994 83.004 47.3152 85.0827 47.3152H87.4095V46.7723C87.4095 45.7485 86.6804 45.128 85.4394 45.128C84.3225 45.128 83.578 45.6554 83.4228 46.462H82.1508C82.337 44.9108 83.5935 43.9956 85.5015 43.9956C87.5181 43.9956 88.6816 45.0039 88.6816 46.8499V50.3091C88.6816 50.728 88.8367 50.8366 89.1935 50.8366ZM87.4095 48.7734V48.3856H84.9586C83.8262 48.3856 83.1901 48.8044 83.1901 49.7042C83.1901 50.4798 83.8572 51.0072 84.912 51.0072C86.4943 51.0072 87.4095 50.092 87.4095 48.7734ZM91.1642 49.9368V45.2521H89.737V44.0886H91.1642V41.8704H92.4362V44.0886H94.4838V45.2521H92.4362V49.9213C92.4362 50.5884 92.6689 50.8366 93.3514 50.8366H94.6079V52H93.2273C91.7071 52 91.1642 51.333 91.1642 49.9368ZM96.3617 42.7546C95.8963 42.7546 95.5395 42.4133 95.5395 41.9324C95.5395 41.4515 95.8963 41.1102 96.3617 41.1102C96.827 41.1102 97.1838 41.4515 97.1838 41.9324C97.1838 42.4133 96.827 42.7546 96.3617 42.7546ZM95.7102 52V44.0886H96.9822V52H95.7102ZM102.37 52.0931C100.059 52.0931 98.4456 50.4488 98.4456 48.0443C98.4456 45.6399 100.059 43.9956 102.37 43.9956C104.682 43.9956 106.295 45.6399 106.295 48.0443C106.295 50.4488 104.682 52.0931 102.37 52.0931ZM102.37 50.9607C103.937 50.9607 104.992 49.7352 104.992 48.0443C104.992 46.3535 103.937 45.128 102.37 45.128C100.803 45.128 99.7486 46.3535 99.7486 48.0443C99.7486 49.7352 100.803 50.9607 102.37 50.9607ZM111.632 43.9956C113.416 43.9956 114.827 44.9729 114.827 47.5945V52H113.555V47.672C113.555 46.0277 112.795 45.159 111.414 45.159C109.925 45.159 109.026 46.2604 109.026 48.0443V52H107.754V44.0886H108.855L109.026 45.159C109.491 44.554 110.298 43.9956 111.632 43.9956ZM124.154 52.0931C121.843 52.0931 120.23 50.4488 120.23 48.0443C120.23 45.6399 121.843 43.9956 124.154 43.9956C126.466 43.9956 128.079 45.6399 128.079 48.0443C128.079 50.4488 126.466 52.0931 124.154 52.0931ZM124.154 50.9607C125.721 50.9607 126.776 49.7352 126.776 48.0443C126.776 46.3535 125.721 45.128 124.154 45.128C122.588 45.128 121.533 46.3535 121.533 48.0443C121.533 49.7352 122.588 50.9607 124.154 50.9607ZM128.609 45.2521V44.0886H130.036V43.2044C130.036 41.8083 130.626 41.1413 132.099 41.1413H133.542V42.3047H132.177C131.541 42.3047 131.308 42.5684 131.308 43.1734V44.0886H133.542V45.2521H131.308V52H130.036V45.2521H128.609ZM139.11 49.9368V45.2521H137.683V44.0886H139.11V41.8704H140.382V44.0886H142.43V45.2521H140.382V49.9213C140.382 50.5884 140.615 50.8366 141.298 50.8366H142.554V52H141.174C139.653 52 139.11 51.333 139.11 49.9368ZM147.105 52.0931C144.731 52.0931 143.18 50.4643 143.18 48.0443C143.18 45.6399 144.7 43.9956 146.934 43.9956C149.168 43.9956 150.626 45.4072 150.688 47.7496C150.688 47.9202 150.673 48.1064 150.657 48.2925H144.514V48.4011C144.561 49.9058 145.507 50.9607 147.012 50.9607C148.129 50.9607 148.997 50.3712 149.261 49.3474H150.549C150.238 50.9296 148.935 52.0931 147.105 52.0931ZM144.592 47.2377H149.323C149.199 45.8726 148.268 45.1125 146.95 45.1125C145.786 45.1125 144.716 45.9501 144.592 47.2377ZM156.018 43.9956C157.802 43.9956 159.213 44.9729 159.213 47.5945V52H157.941V47.672C157.941 46.0277 157.181 45.159 155.801 45.159C154.312 45.159 153.412 46.2604 153.412 48.0443V52H152.14V44.0886H153.241L153.412 45.159C153.877 44.554 154.684 43.9956 156.018 43.9956ZM166.98 45.2986V41.1413H168.252V52H167.151L166.98 50.728C166.453 51.4571 165.6 52.0931 164.266 52.0931C162.078 52.0931 160.465 50.6194 160.465 48.0443C160.465 45.6244 162.078 43.9956 164.266 43.9956C165.6 43.9956 166.499 44.5385 166.98 45.2986ZM164.39 50.9607C165.941 50.9607 166.996 49.7662 166.996 48.0753C166.996 46.3379 165.941 45.128 164.39 45.128C162.823 45.128 161.768 46.3224 161.768 48.0443C161.768 49.7662 162.823 50.9607 164.39 50.9607ZM173.631 52.0931C171.257 52.0931 169.706 50.4643 169.706 48.0443C169.706 45.6399 171.226 43.9956 173.46 43.9956C175.694 43.9956 177.152 45.4072 177.214 47.7496C177.214 47.9202 177.198 48.1064 177.183 48.2925H171.04V48.4011C171.087 49.9058 172.033 50.9607 173.538 50.9607C174.654 50.9607 175.523 50.3712 175.787 49.3474H177.074C176.764 50.9296 175.461 52.0931 173.631 52.0931ZM171.118 47.2377H175.849C175.725 45.8726 174.794 45.1125 173.475 45.1125C172.312 45.1125 171.242 45.9501 171.118 47.2377ZM182.326 44.0886H182.683V45.3296H182.047C180.387 45.3296 179.938 46.7102 179.938 47.9668V52H178.665V44.0886H179.767L179.938 45.2831C180.31 44.6781 180.915 44.0886 182.326 44.0886ZM183.293 49.3939H184.596C184.643 50.3247 185.465 51.0072 186.784 51.0072C187.901 51.0072 188.692 50.5263 188.692 49.7972C188.692 48.8044 187.823 48.7269 186.644 48.5873C184.876 48.3701 183.464 48.0133 183.464 46.369C183.464 44.9263 184.783 43.9801 186.567 43.9956C188.366 44.0111 189.669 44.8488 189.793 46.4931H188.49C188.397 45.6864 187.652 45.0814 186.567 45.0814C185.465 45.0814 184.721 45.5468 184.721 46.2759C184.721 47.1446 185.558 47.2532 186.706 47.3928C188.506 47.61 189.948 47.9512 189.948 49.7042C189.948 51.1778 188.537 52.0931 186.784 52.0931C184.736 52.0931 183.324 51.1313 183.293 49.3939Z" fill="#696969"/>
</svg>
