<svg width="410" height="30" viewBox="0 0 410 30" fill="none" xmlns="http://www.w3.org/2000/svg">
<rect y="7.8252" width="410" height="14.386" rx="7.19299" fill="#C5C5C5" fill-opacity="0.360784"/>
<rect x="2.39734" y="10.2227" width="405.205" height="9.59065" rx="4.79532" fill="#FFCD19"/>
<rect x="314.094" y="0.631836" width="28.772" height="28.7719" rx="14.386" fill="#C5C5C5"/>
<rect x="318.89" y="5.42676" width="19.1813" height="19.1813" rx="9.59065" fill="#FFCD19"/>
<path d="M324.002 20.4268V19.4054L327.915 16.0103C328.85 15.2047 329.627 14.4278 329.627 13.3345C329.627 12.0685 328.763 11.3492 327.426 11.3492C326.131 11.3492 325.268 12.2124 325.268 13.5934V13.7804H324.059V13.5215C324.059 11.6225 325.397 10.2703 327.426 10.2703C329.598 10.2703 330.864 11.4643 330.864 13.2769C330.864 14.7875 329.886 15.7369 328.691 16.7583L325.67 19.319H330.936V20.4268H324.002Z" fill="black"/>
<rect x="105.498" y="0.631836" width="28.7719" height="28.7719" rx="14.386" fill="#C5C5C5"/>
<rect x="110.294" y="5.42676" width="19.1813" height="19.1813" rx="9.59064" fill="#FFCD19"/>
<path d="M119.888 11.4499V10.3566H121.068V20.4268H119.859V13.205C119.716 13.3345 119.485 13.392 119.169 13.392H117.543V12.3131H119.183C119.658 12.3131 119.888 11.9534 119.888 11.4499Z" fill="black"/>
</svg>
